<svg width="1440" height="1022" viewBox="0 0 1440 1022" fill="none" xmlns="http://www.w3.org/2000/svg">
<path d="M1395.91 812.218C1397.42 826.016 1398.52 849.065 1393.97 877.32C1393.71 879.076 1393.44 880.864 1393.17 882.683C1392.9 884.501 1392.64 886.32 1392.13 888.139C1391.23 891.777 1390.33 895.509 1389.39 899.303C1387.82 906.955 1384.81 914.575 1382.07 922.509C1381.37 924.485 1380.66 926.492 1379.96 928.499C1379.13 930.474 1378.29 932.45 1377.42 934.457C1375.65 938.44 1373.71 942.422 1371.64 946.405C1367.46 954.37 1362.61 962.304 1356.89 969.956C1345.56 985.228 1330.48 999.591 1311.72 1009.44C1292.69 1019.47 1270.36 1023.74 1248.79 1021.35C1237.99 1020.16 1227.32 1017.31 1217.59 1012.57C1207.86 1007.9 1199.14 1001.16 1192.45 993.319C1185.63 985.479 1181.02 976.134 1178.54 966.757C1176 957.349 1175.83 947.973 1176.9 939.286C1178.14 929.22 1181.18 919.593 1185.46 910.655C1189.71 901.718 1195.06 893.313 1201.41 885.693C1214.05 870.452 1230.17 857.658 1249.26 849.316C1254.01 847.215 1259.02 845.49 1264.04 844.016C1268.92 842.887 1273.77 841.413 1278.72 840.598C1283.67 839.72 1288.61 838.779 1293.56 838.34C1296.04 838.089 1298.54 837.713 1301.02 837.556L1308.48 837.117C1328.34 836.082 1347.83 837.713 1366.86 840.096C1404.94 844.926 1441.18 853.393 1477.4 856.09C1513.74 858.849 1550.52 857.971 1586.67 852.891C1659.06 842.887 1729.07 817.988 1791.16 781.423C1822.16 763.078 1851.48 742.098 1877.87 718.202C1904.31 694.4 1928.42 668.215 1948.82 639.647C1955.34 630.803 1962.33 620.016 1969.21 608.883C1972.49 603.238 1976 597.625 1979.11 591.98C1982.22 586.304 1985.23 580.785 1988.11 575.548C1993.42 564.917 1998.47 555.635 2001.95 548.986C2005.63 542.432 2008.57 538.763 2010.24 539.673C2011.98 540.613 2012.41 544.345 2011.61 550.617C2011.21 553.753 2010.51 557.516 2009.51 561.844C2008.3 566.109 2006.76 570.969 2004.92 576.363C1997.27 597.782 1982.89 627.479 1958.92 659.403C1900.74 736.579 1819.12 797.416 1727.03 834.828C1681.06 853.769 1632.27 866.501 1582.62 872.898C1557.78 876.128 1532.7 877.352 1507.66 877.038C1495.12 877.038 1482.61 876.128 1470.14 875.219L1451.48 873.275C1445.3 872.491 1439.15 871.675 1433.03 870.735C1397.28 865.404 1362.31 858.222 1327.6 857.438C1323.25 857.219 1318.97 857.438 1314.66 857.47C1310.35 857.564 1306.1 857.971 1301.82 858.191C1293.36 859.1 1284.94 860.261 1276.78 862.299L1270.66 863.804C1268.65 864.337 1266.81 864.996 1264.91 865.592C1261.16 867.003 1257.42 868.508 1253.87 870.358C1246.68 873.996 1239.93 878.48 1233.74 883.592C1221.41 893.847 1211.38 906.767 1205.02 920.784C1198.77 934.802 1196.5 950.262 1200.81 963.841C1205.02 977.357 1215.89 988.772 1229.83 994.824C1243.78 1001.03 1260.53 1002.35 1276.24 999.465C1284.1 998.023 1291.72 995.545 1298.75 992.064C1305.9 988.489 1312.59 984.036 1318.71 978.925C1330.98 968.639 1340.98 955.687 1348.9 941.607C1352.85 934.551 1356.36 927.244 1359.27 919.687L1363.28 908.178L1365.28 902.439C1365.92 900.526 1366.29 898.519 1366.82 896.543L1369.73 884.752L1370.43 881.805L1370.87 878.794L1371.77 872.773C1372.31 868.759 1373.11 864.776 1373.44 860.762L1374.18 848.626L1374.55 842.574C1374.58 840.535 1374.48 838.528 1374.45 836.49L1374.14 824.323C1374.11 820.277 1373.41 816.232 1373.07 812.186C1372.61 808.141 1372.34 804.064 1371.67 800.05C1368.93 783.963 1365.52 767.907 1360.13 752.321C1349.84 721.056 1335.06 690.982 1316.23 663.229C1299.45 638.204 1279.69 615.186 1257.69 593.768C1235.75 572.349 1211.94 552.561 1186.97 533.997C1137.01 496.867 1082.75 464.629 1028.34 432.266C973.91 399.966 919.174 367.007 868.417 328.592C843.073 309.4 818.697 288.828 796.195 266.438C773.725 244.047 753.095 219.806 735.674 193.496C719.224 168.941 705.247 142.317 696.721 113.717C692.541 99.3858 689.8 84.5841 689.131 69.5002C688.429 54.4163 689.866 39.1442 694.146 24.2485C698.46 9.19593 705.816 -4.88446 715.479 -17.3655C725.109 -29.878 737.279 -40.7283 751.39 -49.1327C765.466 -57.4429 781.75 -63.4012 798.97 -64.7183C816.223 -65.9727 833.543 -63.0249 849.091 -56.1258C864.706 -49.2895 877.813 -38.4705 888.145 -26.3657C898.544 -14.1982 906.201 -0.619578 912.286 13.304C924.19 41.2767 929.74 70.7232 931.044 100.232C931.88 129.491 930.108 158.373 925.728 187.192C921.414 215.949 914.326 244.392 904.462 272.02C887.376 319.623 861.229 365.126 824.448 402.663C815.32 412.071 805.49 420.883 795.058 429.068C789.942 433.239 784.458 437.033 779.042 440.922C773.458 444.559 767.941 448.323 762.123 451.615C756.439 455.128 750.453 458.138 744.569 461.305C738.517 464.19 732.565 467.232 726.346 469.772C720.227 472.532 713.907 474.821 707.655 477.236C701.302 479.4 694.982 481.689 688.529 483.508C636.97 498.968 582.97 502.888 530.174 501.979C477.21 501.038 424.949 495.299 373.055 489.623C348.58 487.02 321.73 484.135 294.413 482.567C267.062 480.936 239.109 480.403 212.594 481.03C190.659 481.469 161.436 483.194 132.747 487.616C104.025 491.818 76.1392 499.031 56.0773 506.055C38.7237 512.014 21.2364 519.634 6.15656 528.822C-28.3834 550.178 -44.8341 569.433 -53.862 577.367C-62.6892 585.552 -64.2942 583.168 -58.8775 569.997C-57.6737 567.081 -58.5765 566.673 -58.3425 564.917C-58.2087 564.039 -57.7741 562.879 -56.5369 560.903C-55.2998 558.959 -53.3604 556.136 -49.8162 552.436C-49.2477 551.809 -48.1109 550.554 -47.5759 549.99C-26.7115 526.659 1.07421 508.439 31.2005 495.613C61.4271 482.755 93.8271 474.947 126.394 469.616C166.451 463.124 207.043 461.149 247.368 461.807C267.53 462.183 287.659 463.218 307.721 464.818C327.816 466.417 347.677 468.581 367.505 470.65C407.161 474.821 446.649 479.055 486.138 481.313C525.593 483.539 565.115 483.947 604.001 479.839C642.821 475.762 681.073 467.232 716.148 451.898C733.668 444.277 750.42 435.12 765.935 424.427C781.416 413.67 795.726 401.409 808.7 387.987C834.78 361.175 855.043 329.533 870.557 296.072C885.871 262.455 896.304 226.831 902.356 190.579C906 168.314 908.173 145.829 908.642 123.282C908.842 117.668 908.742 111.992 908.742 106.379C908.642 100.828 908.407 95.309 907.939 89.7584C907.07 78.6885 905.365 67.6813 903.058 56.8623C898.209 35.287 890.519 14.1194 878.214 -3.91232C872.129 -12.9438 864.806 -21.0346 856.347 -27.5887C847.887 -34.1742 838.191 -39.0036 827.792 -41.8573C817.293 -44.6169 806.426 -45.2755 795.76 -43.7702C785.094 -42.2649 774.695 -38.5645 765.165 -33.2648C746.073 -22.6966 730.525 -5.91932 721.23 13.1786C711.868 32.0884 709.159 54.0713 711.065 75.4898C712.971 97.0338 719.759 118.296 729.021 138.554C734.17 149.655 740.021 160.474 746.775 170.917C750.219 176.122 753.429 181.454 757.074 186.534L768.108 201.743C783.422 221.688 800.575 240.503 818.865 258.629L818.229 258.002C857.082 295.351 901.687 327.4 947.796 357.411C1035.13 414.109 1132.57 463.344 1217.53 529.575C1259.86 562.534 1298.95 599.851 1329.27 642.877C1359.7 685.557 1381.23 733.286 1391.16 782.458C1391.9 786.346 1392.8 790.893 1393.77 795.911C1394.34 798.42 1394.64 801.054 1394.94 803.814C1395.28 806.479 1395.58 809.333 1395.91 812.218Z" fill="url(#paint0_linear_310_1784)" fill-opacity="0.4"/>
<defs>
<linearGradient id="paint0_linear_310_1784" x1="-61.9998" y1="559.292" x2="1838.46" y2="-65.1393" gradientUnits="userSpaceOnUse">
<stop stop-color="#4DCCBD"/>
<stop offset="0.397553" stop-color="#4DCCBD"/>
<stop offset="1" stop-color="#4DCCBD"/>
</linearGradient>
</defs>
</svg>
